<svg xmlns="http://www.w3.org/2000/svg" width="40.032" height="40.032">
    <path fill="#FB4381" fill-rule="evenodd" d="M15-.011C6.715-.011-.002 6.705-.002 14.991c0 8.285 6.717 15.001 15.002 15.001s15.001-6.716 15.001-15.001C30.001 6.705 23.285-.011 15-.011zm1.129 25.767c-.091-1.032.711-3.131 2.279-4.765 2.835-2.922.673-4.437-2.069-4.808-2.742-.371-4.642.724-5.315-1.102-.673-1.825.537-2.609.944-2.739.407-.132 1.189-.561 2.457.96.531.53 1.255.618 1.238-.048-.016-.666-.843-2.007.054-3.064.897-1.056 2.946-1.584 2.854-3.151-.092-1.566-1.422-2.222-3.002-1.81-1.581.411-2.433.72-2.882-.635-.1-.302-.183-.598-.254-.877a.636.636 0 0 1 .503-.783c.671-.117 1.36-.182 2.064-.182 4.977 0 9.259 2.971 11.171 7.236.645 1.438-.172 3.127-1.708 3.481l-.031.007c-1.877.425-2.773 1.174-.646 2.978.509.338 1.057.668 1.569 1.056a2.261 2.261 0 0 1 .673 2.776 12.248 12.248 0 0 1-8.291 6.62c-.764.174-1.532-.371-1.608-1.151v.001zM10.227 3.73c.213-.09.471 0 .561.213.184.44-.197.971-1.809 2.225-2.036 1.585-2.387 2.919-1.993 5.533.394 2.614 1.937 2.692 2.904 4.668.967 1.976.087 3.657 1.563 7.053.647 1.357 1.48 2.204 1.823 2.884a.49.49 0 0 1-.532.702c-5.68-1.059-9.982-6.031-9.982-12.018 0-5.064 3.08-9.399 7.465-11.26z"/>
</svg>
