<svg xmlns="http://www.w3.org/2000/svg" width="21.312" height="19.968">
    <path fill="#FFF" fill-rule="evenodd" d="M16 3.688h-2.462l.002 2.236-.74-.023V3.688h-2.462V2.95H12.8V.492h.74l-.002 2.458H16v.738zM7.817 8.634v.001c1.247.868 1.65 1.674 1.65 3.019 0 1.677-1.65 3.345-4.637 3.345-2.62 0-4.83-1.049-4.83-2.726 0-1.704 2.016-3.347 4.636-3.347.286 0 .547-.008.818-.008-.359-.342-.642-.764-.642-1.283 0-.308.099-.605.239-.868-.142.01-.288.013-.437.013-2.152 0-3.594-1.507-3.594-3.375C1.02 1.577 3.011 0 5.126 0c1.18 0 4.28.492 4.28.492l-.618.259H7.292c.992.376 1.521 1.515 1.521 2.683 0 .983-.552 1.826-1.333 2.427-.761.585-.905.83-.905 1.328 0 .425.815 1.147 1.242 1.445zm-.701-5.109C6.906 1.954 5.751.692 4.535.657 3.32.621 2.505 1.824 2.715 3.396c.21 1.572 1.365 2.874 2.581 2.91 1.214.036 2.029-1.209 1.82-2.781zm-.808 6.017a3.945 3.945 0 0 0-1.174-.185c-1.81-.02-3.433 1.087-3.433 2.415 0 1.355 1.308 2.484 3.119 2.484 2.546 0 3.433-1.059 3.433-2.415 0-.163-.02-.323-.058-.478-.198-.768-.904-1.148-1.887-1.821z" opacity=".749"/>
</svg>
