<svg xmlns="http://www.w3.org/2000/svg" width="40.032" height="40.032">
    <path fill="#FB4381" fill-rule="evenodd" d="M15.18 30.008c8.285-.095 14.923-6.889 14.828-15.174C29.912 6.549 23.119-.086 14.834.009 6.549.105-.09 6.895.006 15.18c.095 8.285 6.889 14.924 15.174 14.828zm11.657-9.582a13.07 13.07 0 0 1-6.14 6.286c-.834.406-1.834-.084-2.061-.982l-.235-.928c-.159-.627.12-1.297.699-1.587a9.235 9.235 0 0 0 4.219-4.327c.284-.605.972-.905 1.619-.734l.918.241c.879.231 1.361 1.205.981 2.031zm-15.22 5.415c-.231.88-1.204 1.361-2.031.981a13.07 13.07 0 0 1-6.286-6.14c-.406-.833.084-1.834.983-2.061l.927-.235c.627-.158 1.298.121 1.587.699a9.235 9.235 0 0 0 4.327 4.219c.605.284.905.973.735 1.62l-.242.917zM22.169 14.9a7.188 7.188 0 1 1-14.375.165 7.188 7.188 0 0 1 14.375-.165zM3.19 9.571a13.077 13.077 0 0 1 6.14-6.285c.834-.407 1.834.084 2.061.982l.235.927c.159.628-.12 1.298-.699 1.588a9.237 9.237 0 0 0-4.219 4.326c-.284.606-.973.906-1.619.735l-.918-.241c-.879-.232-1.361-1.205-.981-2.032zm15.22-5.414c.231-.88 1.205-1.361 2.031-.982a13.077 13.077 0 0 1 6.286 6.141c.406.833-.084 1.834-.983 2.061l-.927.234c-.627.159-1.298-.12-1.587-.698a9.24 9.24 0 0 0-4.327-4.219c-.605-.284-.905-.973-.735-1.62l.242-.917z"/>
</svg>
