<svg xmlns="http://www.w3.org/2000/svg" width="19.968" height="19.968">
    <path fill="#FFF" fill-rule="evenodd" d="M12.102-.002H2.898a2.903 2.903 0 0 0-2.9 2.9v9.205a2.903 2.903 0 0 0 2.9 2.899h9.204c1.599 0 2.9-1.3 2.9-2.899V2.898c0-1.599-1.301-2.9-2.9-2.9zm.639 1.992L13 1.989V3.982l-1.982.007-.007-1.993 1.73-.006zm-5.241 3c2.08 0 2.51 1.954 2.51 2.511A2.513 2.513 0 0 1 7.5 10.01a2.513 2.513 0 0 1-2.51-2.509c0-.557.429-2.511 2.51-2.511zm5.513 6.681c0 .741-.605 1.342-1.349 1.342H3.341a1.346 1.346 0 0 1-1.349-1.342V5.987h1.955c-.181.444-.283 1.051-.283 1.559 0 2.111 1.727 3.829 3.851 3.829 2.123 0 3.851-1.718 3.851-3.829 0-.508-.103-1.115-.284-1.559h1.931v5.684z" opacity=".749"/>
</svg>
