<svg xmlns="http://www.w3.org/2000/svg" width="48" height="48">
    <path fill="#FFF" fill-rule="evenodd" d="M18.002 35.998C8.058 35.996.001 27.941-.001 18.004.001 8.063 8.058.009 18.002.007c9.944.002 18.003 8.056 18.004 17.997-.001 9.937-8.061 17.992-18.004 17.994zm0-32.991C9.718 3.021 3.014 9.721 2.999 18.004c.015 8.28 6.719 14.98 15.003 14.995 8.285-.015 14.988-6.715 15.004-14.995-.016-8.283-6.719-14.983-15.004-14.997zm3.518 18.332l-.001.002-.002-.002-11.528 5.674 4.463-12.346.001-.003.001.002 11.562-5.674-4.497 12.345.001.002zm2.296-9.797l-8.098 3.994 4.962 4.697 3.136-8.691z"/>
</svg>
