<svg xmlns="http://www.w3.org/2000/svg" width="40.032" height="40.032">
    <path fill="#FB4381" fill-rule="evenodd" d="M2.35 29.865c-1.105.488-2.346-.339-2.346-1.569V4.824c0-1.117.649-2.129 1.653-2.579L6.339.149c1.105-.495 2.345.33 2.345 1.56v23.472a2.819 2.819 0 0 1-1.653 2.579L2.35 29.865zm14.644 0c1.105.488 2.346-.339 2.346-1.569V4.824a2.821 2.821 0 0 0-1.653-2.579L13.005.149c-1.105-.495-2.345.33-2.345 1.56v23.472a2.82 2.82 0 0 0 1.652 2.579l4.682 2.105zm6.667 0c-1.105.488-2.345-.339-2.345-1.569V4.824a2.82 2.82 0 0 1 1.653-2.579L27.65.149c1.105-.495 2.346.33 2.346 1.56v23.472a2.82 2.82 0 0 1-1.653 2.579l-4.682 2.105z"/>
</svg>
