<svg xmlns="http://www.w3.org/2000/svg" width="16.032" height="19.968">
    <path fill="#FFF" fill-rule="evenodd" d="M6.363.005C2.135.005.004 2.935.004 5.379c0 1.479.579 2.796 1.822 3.286.204.081.386.003.445-.215.041-.151.139-.532.182-.691.06-.215.037-.291-.128-.479-.358-.408-.587-.937-.587-1.687 0-2.174 1.682-4.12 4.381-4.12 2.389 0 3.702 1.412 3.702 3.296C9.821 7.25 8.686 9.344 7 9.344c-.931 0-1.628-.744-1.404-1.658.267-1.089.785-2.265.785-3.052 0-.704-.391-1.292-1.2-1.292-.951 0-1.716.952-1.716 2.227 0 .812.284 1.361.284 1.361l-1.145 4.688c-.34 1.392-.051 3.097-.026 3.269.014.102.15.127.211.05.088-.111 1.221-1.464 1.607-2.816.109-.383.626-2.365.626-2.365.309.571 1.212 1.072 2.173 1.072 2.861 0 4.801-2.52 4.801-5.895 0-2.552-2.235-4.928-5.633-4.928z" opacity=".749"/>
</svg>
