<svg xmlns="http://www.w3.org/2000/svg" width="21.312" height="17.376">
    <path fill="#FFF" fill-rule="evenodd" d="M16 1.534a6.626 6.626 0 0 1-1.886.517A3.292 3.292 0 0 0 15.558.234a6.556 6.556 0 0 1-2.085.797A3.282 3.282 0 0 0 7.88 4.025 9.315 9.315 0 0 1 1.114.595a3.284 3.284 0 0 0 1.015 4.383 3.274 3.274 0 0 1-1.486-.41v.041a3.283 3.283 0 0 0 2.633 3.218 3.253 3.253 0 0 1-1.483.057 3.285 3.285 0 0 0 3.066 2.279A6.58 6.58 0 0 1 0 11.523a9.285 9.285 0 0 0 5.032 1.476c6.037 0 9.339-5.003 9.339-9.341 0-.143-.003-.284-.009-.426A6.662 6.662 0 0 0 16 1.534z" opacity=".749"/>
</svg>
