<svg xmlns="http://www.w3.org/2000/svg" width="21.312" height="18.624">
    <path fill="#FFF" fill-rule="evenodd" d="M15.936 2.597c.119-.679.117-1.378-.297-1.907-.578-.741-1.807-.769-2.649-.637-.686.105-3.002 1.143-3.791 3.624 1.397-.108 2.129.101 1.995 1.662-.057.652-.381 1.366-.745 2.051-.419.791-1.205 2.342-2.235 1.225-.928-1.008-.858-2.932-1.071-4.214-.118-.718-.243-1.614-.475-2.354-.2-.635-.66-1.403-1.222-1.569C4.843.299 4.098.579 3.66.84c-1.395.831-2.457 2.013-3.664 2.988v.091c.239.232.304.612.656.663.83.125 1.621-.783 2.174.161.335.578.44 1.211.655 1.833.287.829.509 1.732.744 2.686.398 1.615.887 4.029 2.264 4.619.703.303 1.758-.101 2.293-.424 1.448-.867 2.577-2.127 3.543-3.409 2.208-3.033 3.427-6.469 3.611-7.451z" opacity=".749"/>
</svg>
